<svg data-v-0dd9719b="" version="1.0" xmlns="http://www.w3.org/2000/svg" xmlns:xlink="http://www.w3.org/1999/xlink" width="100%" height="100%" viewBox="0 0 340.000000 250.000000" preserveAspectRatio="xMidYMid meet" color-interpolation-filters="sRGB" style="margin: auto;"> <rect data-v-0dd9719b="" x="0" y="0" width="100%" height="100%" fill="#ffffff" fill-opacity="1" class="background"></rect> <rect data-v-0dd9719b="" x="0" y="0" width="100%" height="100%" fill="url(#watermark)" fill-opacity="1" class="watermarklayer"></rect> <g data-v-0dd9719b="" fill="#333" class="icon-text-wrapper icon-svg-group iconsvg" transform="translate(53.709999084472656,95.6529712677002)"><g class="iconsvg-imagesvg" transform="translate(0,0)"><g><rect fill="#333" fill-opacity="0" stroke-width="2" x="0" y="0" width="60" height="58.69405722670579" class="image-rect"></rect> <svg x="0" y="0" width="60" height="58.69405722670579" filtersec="colorsb2922018406" class="image-svg-svg primary" style="overflow: visible;"><svg xmlns="http://www.w3.org/2000/svg" viewBox="0 0 102 99.77999877929688"><title>资源 2</title><path fill="#291d6c" d="M0 31.04h22.17v68.74H0zM79.83 0H102v68.74H79.83z"></path><path fill="#74c7fd" d="M102 77.61v22.17H28.83V77.61zM73.17 0v22.17H0V0z"></path><path fill="#d92d62" d="M31.04 31.04h39.91v37.7H31.04z"></path></svg></svg> <!----></g></g> <g transform="translate(67,1.9107799530029297)"><g data-gra="path-name" fill-rule="" class="tp-name iconsvg-namesvg" transform="translate(0,0)"><g transform="scale(1)"><g><path d="M35.72-8.67C35.59-7.94 35.37-6.35 35.16-5.28 34.86-3.69 34.3-3.35 33.74-3.35 33.27-3.35 32.5-3.65 31.98-5.67 31.51-7.56 30.95-11.38 30.48-18.55L39.97-18.55 39.97-25.16 34.94-25.16 39.15-28.98C38.34-30.14 36.1-32.8 34.52-34.3L29.96-30.69C31.34-29.32 33.44-26.74 34.47-25.16L30.14-25.16 30.14-25.37C29.96-29.49 29.92-32.2 29.79-34.77L23.01-34.94 23.53-25.16 2.15-25.16 2.15-18.55 12.96-18.55 12.96-4.29 10.47-4.04 10.47-16.57 4.38-16.74 4.38-3.43 1.2-3.13 2.02 4.38 24.38 1.63 24.38-5.67C23.05-5.45 21.42-5.24 19.4-5.02L19.4-8.63 22.92-8.63 22.92-15.24 19.4-15.24 19.4-18.55 23.87-18.55C24.34-10.69 24.9-6.61 25.59-3.31 26.83 3.22 29.79 4.94 33.23 4.94 36.66 4.94 38.51 3.31 39.84-0.94 40.48-3.05 40.83-4.08 41.04-5.24ZM21.12-33.48L4.46-33.48 4.46-27.47 21.12-27.47ZM58.13-30.01C56.41-31.38 51.99-33.91 50.06-34.94L46.32-29.32C48.72-27.95 52.85-25.29 54.56-24.04ZM74.31-8.97C77.87-14.17 80.06-19.62 81.31-25.59L81.31-32.93 59.24-32.93 59.24-25.84 74.01-25.84C73.11-21.85 71.61-18.16 69.42-14.68 67.31-17.6 65.47-20.95 63.96-24.73L57.74-22.19C59.33-17.56 61.78-13.01 64.87-8.84 62.12-6.05 58.9-3.48 55.08-1.2L60.1 4.81C63.84 2.28 66.88-0.3 69.59-3.18 72.68 0.09 75.94 2.83 79.2 4.85L83.84-1.63C80.23-3.91 77.06-6.22 74.31-8.97ZM56.62-18.85C54.22-20.65 50.53-22.97 48.21-24.26L44.35-18.55C46.45-17.26 50.23-14.72 52.72-12.79ZM50.66-11.12C49.63-8.07 46.49-1.37 44.78 1.59L51.43 4.72C52.72 1.93 55.98-5.24 57.1-8.07ZM117.76-34.82L117.76-4.81C117.76-3.13 116.98-2.58 115.31-2.45L112.39-2.19 114.49 4.98 117.84 4.68C123.16 4.21 124.49 2.92 124.49-1.24L124.49-34.64ZM114.84-4.72L114.84-31.34 108.53-31.51 108.53-9.32C106.81-11.03 104.15-13.61 103.03-14.51L101.01-12.36 101.01-17.39 106.68-17.39 106.68-23.87 101.01-23.87 101.01-27.52C103.2-27.69 105.22-27.86 106.72-28.03L105.56-34.39C100.76-33.91 92.9-33.4 88.09-33.27L88.78-26.87C90.28-27 92.08-27 94.1-27.13L94.1-23.87 87.66-23.87 87.66-17.39 93.63-17.39C91.95-14.47 89.08-11.16 86.16-8.59L88.35-0.13C90.19-1.8 92.26-4.29 94.1-6.87L94.1 4.89 101.01 4.89 101.01-7.3C102.43-5.8 103.89-4.08 104.7-3.05L108.53-7.9 108.53-4.72ZM165.15-34.13L132.44-34.13 132.44-17.94 165.15-17.94ZM158.15-29.19L158.15-27.6 139.35-27.6 139.35-29.19ZM139.35-22.45L139.35-24 158.15-24 158.15-22.45ZM143.6-17.56C140.16-16.4 134.76-15.33 131.06-14.9L131.06-6.7C131.06-5.02 130.68-4.25 129.17-3.22L131.92 3.65C133.25 3.09 134.37 2.75 136.6 2.1 138.66 1.55 142.7 0.77 145.23 0.43L145.19-6.48C143.3-6.05 139.73-5.19 137.33-4.85L137.33-9.19C139.78-9.66 144.03-10.69 146.17-11.25ZM147.81-15.58L147.81 4.85 154.46 4.85 154.46-9.23 160.08-9.23 160.08-6.31C160.08-3.99 159.31-4.16 157.42-3.95L155.83-3.78 158.02 3.18 161.07 2.92C165.36 2.58 166.78 1.67 166.78-3.61L166.78-15.58Z" transform="translate(-1.2000000476837158, 34.939998626708984)"></path></g> <!----> <!----> <!----> <!----> <!----> <!----> <!----></g></g> <g data-gra="path-slogan" fill-rule="" class="tp-slogan iconsvg-slogansvg" fill="#333" transform="translate(5,46.91999816894531)"><rect x="0" height="1" y="3.9750003814697266" width="32.02000045776367"></rect> <rect height="1" y="3.9750003814697266" width="32.02000045776367" x="123.56000137329102"></rect> <g transform="translate(35.02000045776367,0)"><g transform="scale(1)"><path d="M5.67-7.13L5.63-7.13L3.66 0L2.44 0L0.19-8.58L1.41-8.58L3.05-1.59L3.09-1.59L5.02-8.58L6.28-8.58L8.20-1.59L8.25-1.59L9.84-8.58L11.11-8.58L8.86 0L7.64 0L5.67-7.13ZM17.86-3.19L17.86-8.58L19.03-8.58L19.03-3.05Q18.89 0.05 15.52 0.14L15.52 0.14Q12.38 0.05 12.23-2.86L12.23-2.86L12.23-8.58L13.41-8.58L13.41-3.19Q13.45-0.84 15.56-0.80L15.56-0.80Q17.86-0.84 17.86-3.19L17.86-3.19ZM21.98-5.06L26.48-5.06L26.48-8.58L27.66-8.58L27.66 0L26.48 0L26.48-3.98L21.98-3.98L21.98 0L20.81 0L20.81-8.58L21.98-8.58L21.98-5.06ZM35.11 0L34.27-2.48L30.80-2.48L29.91 0L28.73 0L31.97-8.58L33.28-8.58L36.38 0L35.11 0ZM32.53-7.31L31.17-3.52L33.84-3.52L32.58-7.31L32.53-7.31ZM38.81-8.58L43.13-1.64L43.13-8.58L44.25-8.58L44.25 0L42.94 0L38.58-6.94L38.53-6.94L38.53 0L37.41 0L37.41-8.58L38.81-8.58ZM49.36-8.58L50.53-8.58L50.53-1.03L54.89-1.03L54.89 0L49.36 0L49.36-8.58ZM56.20-8.58L57.38-8.58L57.38 0L56.20 0L56.20-8.58ZM60.05-5.53L59.16-5.53L59.16-8.58L60.05-8.58L60.05-5.53ZM67.27 0L66.42-2.48L62.95-2.48L62.06 0L60.89 0L64.13-8.58L65.44-8.58L68.53 0L67.27 0ZM64.69-7.31L63.33-3.52L66-3.52L64.73-7.31L64.69-7.31ZM70.97-8.58L75.28-1.64L75.28-8.58L76.41-8.58L76.41 0L75.09 0L70.73-6.94L70.69-6.94L70.69 0L69.56 0L69.56-8.58L70.97-8.58ZM84.61-3.61L81.98-3.61L81.98-4.59L85.73-4.59L85.73 0L84.98 0L84.70-1.08Q83.72 0.09 81.89 0.14L81.89 0.14Q80.16 0.14 79.22-0.75L79.22-0.75Q77.81-2.06 77.86-4.36L77.86-4.36Q78.19-8.63 81.94-8.81L81.94-8.81Q85.13-8.63 85.59-6L85.59-6L84.47-6Q84-7.78 81.89-7.83L81.89-7.83Q79.22-7.64 79.08-4.31L79.08-4.31Q79.08-0.75 81.94-0.75L81.94-0.75Q82.97-0.75 83.72-1.31L83.72-1.31Q84.66-2.06 84.61-3.61L84.61-3.61Z" transform="translate(-0.1875, 8.8125)"></path></g></g></g></g></g><defs v-gra="od"></defs></svg>